<?xml version="1.0" encoding="UTF-8"?>
<!-- License Agreement at http://iconmonstr.com/license/ -->
<!DOCTYPE svg PUBLIC "-//W3C//DTD SVG 1.1//EN" "http://www.w3.org/Graphics/SVG/1.1/DTD/svg11.dtd">
<svg version="1.1" xmlns="http://www.w3.org/2000/svg" xmlns:xlink="http://www.w3.org/1999/xlink" x="0px" y="0px" width="512px" height="512px" viewBox="0 0 512 512" style="enable-background:new 0 0 512 512;" xml:space="preserve">
<path id="crop-7" d="M393.334,359V118.667H153V50h-34.333v68.667H50V153h68.667v240.334H359V462h34.334v-68.666H462V359H393.334z   M359,204.5h-51.5V153H359V204.5z M221.667,290.334v-68.667h68.666v68.667H221.667z M290.333,307.5V359h-68.666v-51.5H290.333z   M204.5,290.334H153v-68.667h51.5V290.334z M221.667,204.5V153h68.666v51.5H221.667z M307.5,221.667H359v68.667h-51.5V221.667z   M204.5,153v51.5H153V153H204.5z M153,307.5h51.5V359H153V307.5z M307.5,359v-51.5H359V359H307.5z"/>
</svg>