<?xml version="1.0" encoding="UTF-8"?>
<!-- License Agreement at http://iconmonstr.com/license/ -->
<!DOCTYPE svg PUBLIC "-//W3C//DTD SVG 1.1//EN" "http://www.w3.org/Graphics/SVG/1.1/DTD/svg11.dtd">
<svg version="1.1" xmlns="http://www.w3.org/2000/svg" xmlns:xlink="http://www.w3.org/1999/xlink" x="0px" y="0px" width="512px" height="512px" viewBox="0 0 512 512" style="enable-background:new 0 0 512 512;" xml:space="preserve">
<path id="ruler-18" d="M187.333,50H50v412h412V324.666V84.333V50H187.333z M153,427.666H84.333V359H153V427.666z M153,118.667  h-34.333v17.167H153v34.333h-34.333v17.167H153v34.333h-34.333v17.167H153v34.333h-34.333v17.168H153v34.332H84.333V84.333H153  V118.667z M427.666,427.666H187.333V359h34.333v34.334h17.167V359h34.333v34.334h17.168V359h34.332v34.334h17.168V359h34.332v34.334  h17.168V359h34.332V427.666z M427.666,324.666H187.333V84.333h240.333V324.666z"/>
</svg>