<?xml version="1.0" encoding="UTF-8"?>
<!-- License Agreement at http://iconmonstr.com/license/ -->
<!DOCTYPE svg PUBLIC "-//W3C//DTD SVG 1.1//EN" "http://www.w3.org/Graphics/SVG/1.1/DTD/svg11.dtd">
<svg version="1.1" xmlns="http://www.w3.org/2000/svg" xmlns:xlink="http://www.w3.org/1999/xlink" x="0px" y="0px" width="512px" height="512px" viewBox="0 0 512 512" style="enable-background:new 0 0 512 512;" xml:space="preserve">
<path id="ruler-20" d="M135.833,170.167c0,9.48-7.678,17.167-17.167,17.167c-9.488,0-17.167-7.687-17.167-17.167  c0-9.48,7.678-17.167,17.167-17.167C128.155,153,135.833,160.687,135.833,170.167z M462,101.5v137.333H238.833V462H101.5V238.833H50  V101.5h51.5V50h137.333v51.5H462z M135.833,101.5H204.5V84.333h-68.667V101.5z M204.5,238.833h-68.667v188.833H204.5v-34.332  h-34.333v-17.168H204.5v-34.332h-34.333v-17.168H204.5v-34.332h-34.333v-17.168H204.5V238.833z M427.666,135.833h-34.332v51.5  h-17.168v-51.5h-34.332v34.333h-17.168v-34.333h-34.332v51.5h-17.168v-51.5h-34.333v34.333h-17.167v-34.333h-34.333v51.5h-17.167  v-51.5H84.333V204.5h343.333V135.833z"/>
</svg>